<svg xmlns="http://www.w3.org/2000/svg" width="80" height="80" viewBox="0 0 80 80">
  <g fill="none" fill-rule="evenodd">
    <polygon fill="#EEF0F4" fill-rule="nonzero" points="7 21 7 59 40 78 73 59 73 21 40 2"/>
    <polygon fill="#29ABCB" fill-rule="nonzero" points="7 21 40 40 40 2"/>
    <polygon fill="#F2F2F2" fill-rule="nonzero" points="40 40 7 21 7 59"/>
    <polygon fill="#E8E9EB" fill-rule="nonzero" points="40 40 7 59 40 78"/>
    <polygon fill="#DAE2EB" fill-rule="nonzero" points="40 40 40 78 73 59"/>
    <polygon fill="#B8C9D1" fill-rule="nonzero" points="73 21 40 40 73 59"/>
    <polygon fill="#82D3DD" fill-rule="nonzero" points="40 2 40 40 73 21"/>
    <polygon fill="#000" fill-opacity=".21" fill-rule="nonzero" points="7 21 7 59 40 78 73 59 73 21 40 2"/>
  </g>
</svg>
